HIERARCHY
ROOT Hips
{
	OFFSET 0.000000 0.000000 0.000000
	CHANNELS 6 Xposition Yposition Zposition Xrotation Yrotation Zrotation
	JOINT LeftUpLeg_virtual
	{
		OFFSET 0.000000 0.000000 0.000000
		CHANNELS 3 Xrotation Yrotation Zrotation
		JOINT LeftUpLeg
		{
			OFFSET 11.394100 -6.187798 -0.413800
			CHANNELS 3 Xrotation Yrotation Zrotation
			JOINT LeftLeg
			{
				OFFSET 0.430247 -32.302673 3.732800
				CHANNELS 3 Xrotation Yrotation Zrotation
				JOINT LeftFoot
				{
					OFFSET -0.430247 -48.264931 -6.423300
					CHANNELS 3 Xrotation Yrotation Zrotation
					JOINT LeftToeBase
					{
						OFFSET 4.230900 -16.068199 23.438400
						CHANNELS 3 Xrotation Yrotation Zrotation
						JOINT LeftToe_End
						{
							OFFSET 4.510700 0.695400 19.974600
							CHANNELS 3 Xrotation Yrotation Zrotation
							End Site
							{
								OFFSET 0 0 0
							}
						}
					}
				}
			}
		}
	}
	JOINT RightUpLeg_virtual
	{
		OFFSET 0.000000 0.000000 0.000000
		CHANNELS 3 Xrotation Yrotation Zrotation
		JOINT RightUpLeg
		{
			OFFSET -11.333700 -6.187798 -0.413800
			CHANNELS 3 Xrotation Yrotation Zrotation
			JOINT RightLeg
			{
				OFFSET -0.430392 -32.302628 3.733000
				CHANNELS 3 Xrotation Yrotation Zrotation
				JOINT RightFoot
				{
					OFFSET 0.430392 -48.264973 -6.423500
					CHANNELS 3 Xrotation Yrotation Zrotation
					JOINT RightToeBase
					{
						OFFSET -4.230900 -16.068199 23.438400
						CHANNELS 3 Xrotation Yrotation Zrotation
						JOINT RightToe_End
						{
							OFFSET -4.510700 0.695400 19.974600
							CHANNELS 3 Xrotation Yrotation Zrotation
							End Site
							{
								OFFSET 0 0 0
							}
						}
					}
				}
			}
		}
	}
	JOINT Spine_virtual
	{
		OFFSET 0.000000 0.000000 0.000000
		CHANNELS 3 Xrotation Yrotation Zrotation
		JOINT Spine
		{
			OFFSET -0.002400 12.777504 0.315300
			CHANNELS 3 Xrotation Yrotation Zrotation
			JOINT Spine1
			{
				OFFSET -0.002067 5.816869 0.032633
				CHANNELS 3 Xrotation Yrotation Zrotation
				JOINT Spine1_split
				{
					OFFSET -0.002067 5.816869 0.032633
					CHANNELS 3 Xrotation Yrotation Zrotation
					JOINT Spine2
					{
						OFFSET -0.002067 5.816869 0.032633
						CHANNELS 3 Xrotation Yrotation Zrotation
						JOINT Neck_virtual
						{
							OFFSET 0.000000 0.000000 0.000000
							CHANNELS 3 Xrotation Yrotation Zrotation
							JOINT Neck
							{
								OFFSET -0.003700 21.199493 -0.826900
								CHANNELS 3 Xrotation Yrotation Zrotation
								JOINT Head
								{
									OFFSET 0.000000 20.442200 4.834800
									CHANNELS 3 Xrotation Yrotation Zrotation
									JOINT HeadTop_End
									{
										OFFSET 0.000000 34.668396 4.968400
										CHANNELS 3 Xrotation Yrotation Zrotation
										End Site
										{
											OFFSET 0 0 0
										}
									}
								}
							}
						}
						JOINT LeftShoulder_virtual
						{
							OFFSET 0.000000 0.000000 0.000000
							CHANNELS 3 Xrotation Yrotation Zrotation
							JOINT LeftShoulder
							{
								OFFSET 3.288150 8.794197 -1.372250
								CHANNELS 3 Xrotation Yrotation Zrotation
								JOINT LeftShoulder_split
								{
									OFFSET 3.288150 8.794197 -1.372250
									CHANNELS 3 Xrotation Yrotation Zrotation
									JOINT LeftArm
									{
										OFFSET 11.953299 -2.279007 -0.146200
										CHANNELS 3 Xrotation Yrotation Zrotation
										JOINT LeftForeArm
										{
											OFFSET 18.448900 0.000000 0.000000
											CHANNELS 3 Xrotation Yrotation Zrotation
											JOINT LeftHand
											{
												OFFSET 29.527798 0.000000 0.000000
												CHANNELS 3 Xrotation Yrotation Zrotation
												End Site
												{
													OFFSET 0 0 0
												}
											}
										}
									}
								}
							}
						}
						JOINT RightShoulder_virtual
						{
							OFFSET 0.000000 0.000000 0.000000
							CHANNELS 3 Xrotation Yrotation Zrotation
							JOINT RightShoulder
							{
								OFFSET -3.249400 8.794197 -1.372250
								CHANNELS 3 Xrotation Yrotation Zrotation
								JOINT RightShoulder_split
								{
									OFFSET -3.249400 8.794197 -1.372250
									CHANNELS 3 Xrotation Yrotation Zrotation
									JOINT RightArm
									{
										OFFSET -11.953299 -2.279007 -0.146200
										CHANNELS 3 Xrotation Yrotation Zrotation
										JOINT RightForeArm
										{
											OFFSET -18.448900 0.000000 0.000000
											CHANNELS 3 Xrotation Yrotation Zrotation
											JOINT RightHand
											{
												OFFSET -29.527802 0.000000 0.000000
												CHANNELS 3 Xrotation Yrotation Zrotation
												End Site
												{
													OFFSET 0 0 0
												}
											}
										}
									}
								}
							}
						}
					}
				}
			}
		}
	}
}
MOTION
Frames: 10
Frame Time: 0.03333333
-0.406562 94.036652 8.493282 0.000000 0.000000 0.000000 -14.517664 -1.465003 -4.986908 -39.145826 20.995078 11.549541 44.399645 -6.112203 10.909312 3.795208 -7.637959 0.751586 -2.298390 0.075256 -1.761620 0.000000 0.000000 0.000000 -14.195801 -0.751047 -4.986192 -30.050100 -31.315584 -5.603413 36.339741 5.588151 -10.045561 7.079407 8.176964 -7.083768 -2.582029 0.567974 -0.191258 0.000000 0.000000 0.000000 -14.413427 -1.737336 -5.386931 5.145956 -1.418239 2.204824 13.612760 -0.785800 -0.561454 0.482038 2.386748 -0.450214 0.000000 0.000000 0.000000 12.154952 -0.242356 -0.738219 12.050043 0.720115 1.074647 -2.472629 0.632418 3.007811 0.000000 0.000000 0.000000 12.446061 -0.122480 -0.821260 0.849169 6.750793 -10.182555 -2.005609 -2.666721 -0.534518 65.366864 -67.225310 -5.001169 0.226568 -26.939499 1.338454 0.000000 0.000000 0.000000 12.540250 -0.330129 -0.813627 1.392349 -1.560685 11.627361 6.176866 0.549676 -2.495272 6.477012 35.793497 57.887943 -0.946926 27.996501 0.368623 0.000000 0.000000 0.000000 
-0.417705 94.045204 8.507298 0.000000 0.000000 0.000000 -14.510636 -1.445978 -4.989234 -39.151836 21.003648 11.550943 44.393941 -6.106687 10.912704 3.806611 -7.632793 0.754862 -2.298844 0.075013 -1.760327 0.000000 0.000000 0.000000 -14.189139 -0.740208 -4.988761 -30.043246 -31.306818 -5.600689 36.323807 5.594544 -10.045934 7.088869 8.192528 -7.069855 -2.608269 0.564903 -0.187642 0.000000 0.000000 0.000000 -14.403067 -1.721705 -5.386193 5.138587 -1.415584 2.206118 13.612471 -0.785038 -0.564060 0.480706 2.380521 -0.452716 0.000000 0.000000 0.000000 12.159453 -0.242106 -0.741223 12.056533 0.720911 1.073393 -2.485492 0.640196 3.004700 0.000000 0.000000 0.000000 12.448622 -0.121938 -0.821862 0.847416 6.737048 -10.180195 -2.016554 -2.657323 -0.524495 65.334496 -67.191009 -5.021097 0.214128 -26.942188 1.323784 0.000000 0.000000 0.000000 12.536858 -0.331721 -0.815241 1.392363 -1.566096 11.626712 6.185252 0.546112 -2.491759 6.464762 35.805184 57.895928 -0.948588 28.014357 0.370373 0.000000 0.000000 0.000000 
-0.429215 94.058006 8.521107 0.000000 0.000000 0.000000 -14.498772 -1.401930 -4.993120 -39.162058 20.997407 11.548425 44.379052 -6.110527 10.920404 3.827058 -7.634704 0.756725 -2.305014 0.073812 -1.753718 0.000000 0.000000 0.000000 -14.174943 -0.713338 -4.994061 -30.019897 -31.327397 -5.602703 36.288576 5.601997 -10.042977 7.088968 8.219220 -7.063517 -2.608143 0.566587 -0.179862 0.000000 0.000000 0.000000 -14.386426 -1.689770 -5.386757 5.135523 -1.414438 2.210497 13.610418 -0.789657 -0.566837 0.485217 2.378716 -0.453009 0.000000 0.000000 0.000000 12.162492 -0.246950 -0.745174 12.052162 0.722428 1.088869 -2.509369 0.673421 2.989397 0.000000 0.000000 0.000000 12.449492 -0.126936 -0.822324 0.845279 6.731089 -10.173492 -2.019719 -2.664545 -0.514641 65.083657 -67.172315 -5.242158 0.202791 -26.911444 1.311450 0.000000 0.000000 0.000000 12.531690 -0.338764 -0.817458 1.393843 -1.571881 11.617441 6.191966 0.549374 -2.486512 6.454021 35.812598 57.906002 -0.946758 28.034932 0.372447 0.000000 0.000000 0.000000 
-0.438819 94.068970 8.533974 0.000000 0.000000 0.000000 -14.484915 -1.341828 -4.997647 -39.177897 20.979594 11.542997 44.362410 -6.116935 10.929121 3.852804 -7.639413 0.764286 -2.313575 0.071706 -1.744033 0.000000 0.000000 0.000000 -14.158202 -0.670377 -5.000973 -29.987532 -31.373712 -5.610778 36.240707 5.609062 -10.037345 7.078163 8.250388 -7.065095 -2.589136 0.573686 -0.170419 0.000000 0.000000 0.000000 -14.368198 -1.643730 -5.388069 5.137113 -1.415553 2.216810 13.607187 -0.798938 -0.569093 0.489031 2.382436 -0.455257 0.000000 0.000000 0.000000 12.165699 -0.256245 -0.748709 12.036742 0.725255 1.118802 -2.541155 0.729790 2.961891 0.000000 0.000000 0.000000 12.448798 -0.136600 -0.821901 0.842487 6.733988 -10.161807 -2.018395 -2.679908 -0.505458 64.631997 -67.173708 -5.655437 0.194530 -26.860412 1.303904 0.000000 0.000000 0.000000 12.525780 -0.350484 -0.819561 1.397008 -1.576250 11.600254 6.198569 0.563447 -2.480410 6.448080 35.817437 57.915619 -0.941979 28.053400 0.375129 0.000000 0.000000 0.000000 
-0.445981 94.076530 8.545929 0.000000 0.000000 0.000000 -14.469436 -1.273916 -5.001313 -39.198924 20.954836 11.533428 44.348941 -6.119138 10.935681 3.876071 -7.640711 0.783825 -2.321136 0.069794 -1.734444 0.000000 0.000000 0.000000 -14.140621 -0.613644 -5.006827 -29.952852 -31.437288 -5.626415 36.194696 5.617460 -10.030621 7.058029 8.281534 -7.063046 -2.580588 0.585543 -0.162704 0.000000 0.000000 0.000000 -14.350994 -1.588011 -5.389704 5.143051 -1.419935 2.223470 13.603761 -0.812210 -0.569906 0.492101 2.386689 -0.458689 0.000000 0.000000 0.000000 12.169864 -0.269029 -0.750531 12.011375 0.729083 1.159042 -2.575341 0.807444 2.922545 0.000000 0.000000 0.000000 12.447841 -0.150177 -0.819539 0.838883 6.746577 -10.142924 -2.014424 -2.699902 -0.497851 64.017854 -67.196002 -6.228711 0.191852 -26.796188 1.302789 0.000000 0.000000 0.000000 12.520176 -0.366189 -0.820595 1.401640 -1.577859 11.574923 6.202551 0.584362 -2.472066 6.449364 35.822867 57.919267 -0.935760 28.063115 0.378775 0.000000 0.000000 0.000000 
-0.450774 94.078400 8.555927 0.000000 0.000000 0.000000 -14.450997 -1.204013 -5.002685 -39.224089 20.926088 11.519327 44.340557 -6.113979 10.938382 3.892652 -7.634889 0.815211 -2.326594 0.069032 -1.727630 0.000000 0.000000 0.000000 -14.124863 -0.547041 -5.010510 -29.919657 -31.503858 -5.647263 36.160999 5.628364 -10.025242 7.035160 8.306039 -7.048429 -2.598677 0.599731 -0.159361 0.000000 0.000000 0.000000 -14.337160 -1.526428 -5.390302 5.151263 -1.428093 2.229363 13.600858 -0.828802 -0.568654 0.492745 2.390178 -0.466703 0.000000 0.000000 0.000000 12.175974 -0.285118 -0.749613 11.976849 0.734605 1.204455 -2.604310 0.903696 2.873569 0.000000 0.000000 0.000000 12.448387 -0.166957 -0.814756 0.834460 6.767731 -10.114941 -2.002516 -2.724238 -0.487250 63.300438 -67.236116 -6.911684 0.194331 -26.722147 1.308166 0.000000 0.000000 0.000000 12.517265 -0.385235 -0.819313 1.407860 -1.574789 11.542840 6.201913 0.601955 -2.460440 6.461204 35.832637 57.913372 -0.929635 28.060681 0.384228 0.000000 0.000000 0.000000 
-0.454466 94.076935 8.564114 0.000000 0.000000 0.000000 -14.433805 -1.138477 -5.001663 -39.249959 20.894389 11.499689 44.335062 -6.104776 10.938472 3.906028 -7.621770 0.849536 -2.330358 0.069863 -1.724880 0.000000 0.000000 0.000000 -14.111240 -0.476390 -5.010457 -29.888163 -31.558158 -5.667696 36.146509 5.639936 -10.021611 7.007721 8.314704 -7.016309 -2.632877 0.613201 -0.160248 0.000000 0.000000 0.000000 -14.327107 -1.459585 -5.389289 5.160782 -1.440885 2.234293 13.598486 -0.848343 -0.564535 0.491059 2.392171 -0.475362 0.000000 0.000000 0.000000 12.183370 -0.303878 -0.745308 11.935183 0.742250 1.250155 -2.621034 1.010656 2.818466 0.000000 0.000000 0.000000 12.451870 -0.186535 -0.807470 0.829188 6.794384 -10.077431 -1.994346 -2.742819 -0.476520 62.546870 -67.284849 -7.644512 0.198834 -26.628433 1.317633 0.000000 0.000000 0.000000 12.517818 -0.406588 -0.814853 1.416321 -1.565369 11.505119 6.199092 0.614547 -2.445850 6.487324 35.848501 57.892868 -0.924850 28.047994 0.391101 0.000000 0.000000 0.000000 
-0.455845 94.074745 8.568523 0.000000 0.000000 0.000000 -14.419810 -1.077147 -4.999019 -39.274295 20.859910 11.474624 44.331329 -6.096977 10.937308 3.922256 -7.604222 0.877265 -2.331620 0.072032 -1.726698 0.000000 0.000000 0.000000 -14.099568 -0.406925 -5.006960 -29.855751 -31.588249 -5.680189 36.151860 5.647369 -10.019121 6.970012 8.297989 -6.972723 -2.662541 0.623744 -0.163318 0.000000 0.000000 0.000000 -14.319849 -1.391245 -5.386519 5.169882 -1.458481 2.239616 13.597284 -0.870602 -0.556696 0.485380 2.396428 -0.480662 0.000000 0.000000 0.000000 12.191054 -0.325157 -0.737084 11.887210 0.750650 1.292163 -2.620920 1.120058 2.760625 0.000000 0.000000 0.000000 12.459085 -0.208770 -0.797694 0.823053 6.822663 -10.032182 -1.989102 -2.763420 -0.467177 61.813287 -67.334136 -8.379137 0.203128 -26.507495 1.329089 0.000000 0.000000 0.000000 12.522109 -0.429755 -0.806386 1.426742 -1.547958 11.463672 6.196214 0.626462 -2.430319 6.530383 35.866577 57.853628 -0.922646 28.031849 0.399417 0.000000 0.000000 0.000000 
-0.454324 94.072380 8.569237 0.000000 0.000000 0.000000 -14.409747 -1.021375 -4.995594 -39.296117 20.827166 11.447332 44.329482 -6.091547 10.934902 3.945589 -7.586405 0.895818 -2.330596 0.074858 -1.731822 0.000000 0.000000 0.000000 -14.090228 -0.343507 -5.001405 -29.816426 -31.585855 -5.674464 36.169065 5.642482 -10.016297 6.915664 8.244165 -6.931039 -2.672317 0.629686 -0.166945 0.000000 0.000000 0.000000 -14.316636 -1.324738 -5.383209 5.178684 -1.480193 2.247868 13.597367 -0.894585 -0.544648 0.477573 2.400604 -0.480812 0.000000 0.000000 0.000000 12.198131 -0.348017 -0.724511 11.833878 0.759316 1.325901 -2.604494 1.223470 2.703833 0.000000 0.000000 0.000000 12.469000 -0.232942 -0.785388 0.816254 6.848971 -9.984931 -1.987009 -2.780679 -0.457730 61.138287 -67.382630 -9.079002 0.204130 -26.366301 1.341651 0.000000 0.000000 0.000000 12.529267 -0.453588 -0.793673 1.438494 -1.520822 11.418893 6.197775 0.640385 -2.415819 6.587232 35.878034 57.798140 -0.923684 28.020183 0.408250 0.000000 0.000000 0.000000 
-0.450610 94.070839 8.569313 0.000000 0.000000 0.000000 -14.404270 -0.975605 -4.993440 -39.315023 20.801771 11.423104 44.328109 -6.086888 10.931307 3.974715 -7.571061 0.908901 -2.329990 0.077682 -1.737016 0.000000 0.000000 0.000000 -14.083556 -0.290550 -4.995506 -29.770052 -31.548982 -5.648357 36.187814 5.623938 -10.012619 6.850644 8.151994 -6.894436 -2.662703 0.630508 -0.170769 0.000000 0.000000 0.000000 -14.317927 -1.265745 -5.381430 5.187685 -1.504517 2.260698 13.598746 -0.919197 -0.527917 0.472902 2.405852 -0.474670 0.000000 0.000000 0.000000 12.203671 -0.371232 -0.707322 11.774160 0.765945 1.349753 -2.576299 1.315717 2.650409 0.000000 0.000000 0.000000 12.479653 -0.257708 -0.770176 0.809552 6.871822 -9.943226 -1.987886 -2.798563 -0.455294 60.549695 -67.430134 -9.711229 0.201150 -26.213409 1.352649 0.000000 0.000000 0.000000 12.537311 -0.477097 -0.776679 1.450567 -1.486267 11.371045 6.203586 0.653993 -2.403305 6.652247 35.874346 57.731272 -0.927424 28.019342 0.416139 0.000000 0.000000 0.000000 
